<?xml version="1.0" encoding="utf-8"?>
<!-- Generator: Adobe Illustrator 22.1.0, SVG Export Plug-In . SVG Version: 6.00 Build 0)  -->
<svg version="1.1" id="Layer_1" xmlns="http://www.w3.org/2000/svg" xmlns:xlink="http://www.w3.org/1999/xlink" x="0px" y="0px"
	 viewBox="0 0 687.3 214.5" style="enable-background:new 0 0 687.3 214.5;" xml:space="preserve">
<g>
	<path d="M165.4,47.4c-11.7,5.6-23.2,11-35.1,16.6c-0.8-1.3-1.5-2.4-2.1-3.6c-6.8-11.2-15.7-20-28.7-23c-18.3-4.3-33,2-44.7,16.2
		c-7.5,9.1-11.4,19.8-13.1,31.3c-3,19.3-2.1,38.4,3.4,57.2c4.3,14.5,12.2,26.6,26.5,32.7c16.4,7,32.4,5.6,46.8-5.8
		c7.5-6,10.2-14.7,11.4-23.8c1-7.6,1-15.3,1.5-23c0.2-2.8-0.9-3.6-3.6-3.6c-16.4,0.1-32.7,0-49.1,0.1c-3.2,0-4.3-0.9-4.2-4.2
		c0.2-9.1,0.1-18.2,0-27.4c0-2.7,0.8-3.7,3.6-3.7c29,0.1,58,0.1,87,0c2.9,0,3.6,1.1,3.5,3.7c-0.1,12.2,0.4,24.3-0.1,36.5
		c-0.6,15.5-1.3,31.1-7.5,45.7c-10.6,24.8-29.6,39.2-55.8,43.9c-18,3.2-35.6,1.4-52.4-6c-21-9.4-35.3-25.2-43.5-46.7
		c-5.3-13.9-7.4-28.3-8.5-43.1C-0.7,101,0,84.9,4.2,69.1C13,36.2,33,13.1,66.1,3.4c38.3-11.3,79.3,6.7,98.2,41.5
		C164.6,45.5,164.8,46.2,165.4,47.4z"/>
	<path d="M517.6,206.2c-8,0-15.4,0-22.7,0c-5.4,0-10.8-0.1-16.1,0c-2.5,0.1-3.7-0.9-4.8-3.1c-12.7-26.7-25.6-53.3-38.2-80
		c-1.7-3.6-3.6-5-7.7-4.8c-6.9,0.4-13.8,0.1-20.7,0.1c-5.3,0-5.3,0-5.3,5.5c0,25.6,0,51.2,0,76.8c0,5.4,0,5.4-5.6,5.4
		c-9.4,0-18.7-0.1-28.1,0c-2.7,0-3.7-0.7-3.7-3.6c0.1-63.6,0.1-127.2,0-190.8c0-2.7,0.7-3.7,3.6-3.7c29.8,0.1,59.6-0.5,89.4,0.4
		c17.9,0.5,32,10,41.6,25.1c17.9,28.2,7.3,64.6-22.7,79.1c-3.2,1.5-2.2,3.1-1.2,5.2c12.9,26.7,25.7,53.5,38.6,80.2
		C515,200.7,516.1,203.1,517.6,206.2z M430.4,83.5c7.8,0,15.7,0,23.5,0c10.7,0,19.6-9.1,19.6-20.1c0.1-10.9-8.8-20.5-19.3-20.6
		c-16.1-0.1-32.3,0-48.4-0.1c-2.7,0-3.8,0.9-3.8,3.6c0.1,11.2,0.1,22.4,0,33.7c0,2.8,1.1,3.6,3.8,3.5
		C414,83.4,422.2,83.5,430.4,83.5z"/>
	<path d="M642.4,114.5c14.6,30.5,29.1,60.7,43.9,91.5c-1.7,0.1-2.8,0.3-4,0.3c-11.6,0-23.2-0.1-34.7,0.1c-2.6,0-3.9-0.9-5.1-3.2
		c-12.9-27.1-25.9-54.2-38.9-81.3c-1.2-2.5-2.6-3.4-5.4-3.3c-7.5,0.2-15,0.1-22.4,0.1c-4.8,0-4.9,0-4.9,4.7c0,26.1,0,52.1,0,78.2
		c0,4.7,0,4.7-4.9,4.7c-9.6,0-19.2-0.1-28.8,0c-2.7,0-3.7-0.8-3.7-3.6c0.1-63.6,0.1-127.2,0-190.8c0-2.8,0.9-3.6,3.6-3.6
		c29.6,0.1,59.2-0.5,88.7,0.3c22.7,0.7,42.6,17.7,48.7,40.4c7,25.9-5.9,51.9-28.3,63.2C645.4,112.9,644.1,113.6,642.4,114.5z
		 M599.2,83.5c7.9,0,15.9,0,23.8,0c10.4,0,19.1-9.1,19.4-20c0.3-10.3-8.9-20.5-19-20.6c-16.3-0.2-32.7,0-49-0.1
		c-2.4,0-3.4,0.8-3.3,3.2c0.1,11.4,0.1,22.9,0,34.3c0,2.4,0.9,3.2,3.3,3.2C582.6,83.4,590.9,83.5,599.2,83.5z"/>
	<path d="M348.8,206.2c-1.9,0-3.1,0-4.2,0c-11.3,0-22.7-0.1-34,0.1c-2.9,0-4.3-1-5.6-3.6c-12.8-26.9-25.8-53.7-38.6-80.6
		c-1.3-2.7-2.8-3.8-5.8-3.7c-7.2,0.2-14.5,0.1-21.7,0.1c-5.2,0-5.2,0-5.2,5.1c0,26,0,51.9,0,77.9c0,4.8,0,4.8-4.9,4.8
		c-9.6,0-19.2-0.1-28.8,0c-2.7,0-3.7-0.8-3.7-3.6c0.1-63.6,0.1-127.2,0-190.8c0-2.7,0.8-3.7,3.6-3.7c29.6,0.1,59.2-0.5,88.7,0.3
		c22.2,0.6,42.7,17.2,48.8,40.8c6.7,25.9-6,52-29.3,63.3c-2.7,1.3-3,2.5-1.7,5c13.3,27.4,26.5,54.9,39.7,82.4
		C346.9,201.9,347.7,203.7,348.8,206.2z M261.9,83.5c7.8,0,15.7,0,23.5,0c10.6,0,19.4-9.3,19.5-20.3c0-10.4-8.8-20.2-18.9-20.3
		c-16.4-0.2-32.7,0-49.1-0.1c-2.5,0-3.3,0.9-3.3,3.3c0.1,11.3,0.1,22.7,0,34c0,2.9,1.2,3.5,3.8,3.5
		C245.5,83.4,253.7,83.5,261.9,83.5z"/>
</g>
</svg>
